<svg xmlns="http://www.w3.org/2000/svg" width="352" height="352" viewBox="0 0 352 352"><g transform="translate(176, 176) translate(-128, -128)"><svg width="256" height="256" viewBox="144 144 512 512"><defs xmlns="http://www.w3.org/2000/svg"><clipPath id="a"><path d="m148.09 148.09H651.9V651.9H148.09z" fill="#0033ff"/></clipPath></defs><g xmlns="http://www.w3.org/2000/svg" clip-path="url(#a)"><path d="m232.03 215.37h50.402v-50.402c0-9.3711 7.4961-16.871 16.871-16.871 9.1641.0 16.66 7.4961 16.66 16.871v50.402h33.738v-50.402c0-9.3711 7.4961-16.871 16.66-16.871 9.3711.0 16.871 7.4961 16.871 16.871v50.402h33.531v-50.402c0-9.3711 7.4961-16.871 16.871-16.871 9.1641.0 16.66 7.4961 16.66 16.871v50.402h33.738v-50.402c0-9.3711 7.4961-16.871 16.66-16.871 9.3711.0 16.871 7.4961 16.871 16.871v50.402h50.402c9.1641.0 16.871 7.4961 16.871 16.66v50.402h50.195c9.3711.0 16.871 7.4961 16.871 16.871.0 9.1641-7.4961 16.66-16.871 16.66h-50.195v33.738h50.195c9.3711.0 16.871 7.4961 16.871 16.66.0 9.3711-7.4961 16.871-16.871 16.871h-50.195v33.531h50.195c9.3711.0 16.871 7.4961 16.871 16.871.0 9.1641-7.4961 16.66-16.871 16.66h-50.195v33.738h50.195c9.3711.0 16.871 7.4961 16.871 16.66.0 9.3711-7.4961 16.871-16.871 16.871h-50.195v50.402c0 9.1641-7.707 16.871-16.871 16.871h-50.402v50.195c0 9.3711-7.4961 16.871-16.871 16.871-9.1641.0-16.66-7.4961-16.66-16.871v-50.195h-33.738v50.195c0 9.3711-7.4961 16.871-16.66 16.871-9.3711.0-16.871-7.4961-16.871-16.871v-50.195h-33.531v50.195c0 9.3711-7.4961 16.871-16.871 16.871-9.1641.0-16.66-7.4961-16.66-16.871v-50.195h-33.738v50.195c0 9.3711-7.4961 16.871-16.66 16.871-9.3711.0-16.871-7.4961-16.871-16.871v-50.195H232.03c-9.1641.0-16.66-7.707-16.66-16.871v-50.402h-50.402c-9.3711.0-16.871-7.4961-16.871-16.871.0-9.1641 7.4961-16.66 16.871-16.66h50.402v-33.738h-50.402c-9.3711.0-16.871-7.4961-16.871-16.66.0-9.3711 7.4961-16.871 16.871-16.871h50.402v-33.531h-50.402c-9.3711.0-16.871-7.4961-16.871-16.871.0-9.1641 7.4961-16.66 16.871-16.66h50.402v-33.738h-50.402c-9.3711.0-16.871-7.4961-16.871-16.66.0-9.3711 7.4961-16.871 16.871-16.871h50.402V232.03c0-9.1641 7.4961-16.66 16.66-16.66zm83.934 83.934h168.07c9.1641.0 16.66 7.4961 16.66 16.66v168.07c0 9.1641-7.4961 16.66-16.66 16.66h-168.07c-9.1641.0-16.66-7.4961-16.66-16.66v-168.07c0-9.1641 7.4961-16.66 16.66-16.66zm151.21 33.531h-134.34v134.34h134.34zm83.934-83.934h-302.2v302.2h302.2z" fill="#0033ff"/></g></svg></g></svg>