<svg xmlns="http://www.w3.org/2000/svg" width="352" height="352" viewBox="0 0 352 352"><g transform="translate(176, 176) translate(-128, -128)"><svg width="256" height="256" viewBox="144 144 512 512"><g xmlns="http://www.w3.org/2000/svg"><path d="m211.07 211.07v62.977c0 17.32 14.168 31.488 31.488 31.488h314.88c17.32.0 31.488-14.168 31.488-31.488l-.003907-62.977c0-17.32-14.168-31.488-31.488-31.488h-314.88c-17.32.0-31.488 14.168-31.488 31.488zm48.805 9.4453c12.594-11.02 33.062-11.02 44.082.0 6.2969 6.2969 9.4453 14.168 9.4453 22.043.0 7.8711-3.1484 15.742-9.4453 22.043-6.293 6.2969-14.168 9.4453-22.039 9.4453-7.8711.0-15.742-3.1484-22.043-9.4453-6.2969-6.3008-9.4453-14.172-9.4453-22.043s3.1484-17.32 9.4453-22.043z" fill="#0033ff"/><path d="m588.93 368.51c0-17.32-14.168-31.488-31.488-31.488h-314.88c-17.32.0-31.488 14.168-31.488 31.488v62.977c0 17.32 14.168 31.488 31.488 31.488h314.88c17.32.0 31.488-14.168 31.488-31.488zm-284.96 53.527c-6.2969 6.2969-14.172 9.4492-22.043 9.4492-7.8711.0-15.742-3.1484-22.043-9.4453-6.2969-6.3008-9.4453-14.172-9.4453-22.043s3.1484-15.742 9.4453-22.043c12.594-11.02 33.062-11.02 44.082.0 6.2969 6.2969 9.4453 14.168 9.4453 22.043.003906 7.8711-3.1445 15.742-9.4414 22.039z" fill="#0033ff"/><path d="m588.93 588.93v-62.977c0-17.32-14.168-31.488-31.488-31.488h-314.88c-17.32.0-31.488 14.168-31.488 31.488v62.977c0 17.32 14.168 31.488 31.488 31.488h314.88c17.316.0 31.484-14.168 31.484-31.488zm-284.96-9.4453c-6.2969 6.2969-14.172 9.4453-22.043 9.4453-7.8711.0-15.742-3.1484-22.043-9.4453-6.2969-6.2969-9.4453-14.168-9.4453-22.043.0-7.8711 3.1484-15.742 9.4453-22.043 12.594-12.594 33.062-12.594 44.082.0 6.2969 6.2969 9.4453 14.168 9.4453 22.043.003906 7.875-3.1445 15.746-9.4414 22.043z" fill="#0033ff"/></g></svg></g></svg>