<svg xmlns="http://www.w3.org/2000/svg" width="352" height="352" viewBox="0 0 352 352"><g transform="translate(176, 176) translate(-128, -128)"><svg width="256" height="256" viewBox="144 144 512 512"><g xmlns="http://www.w3.org/2000/svg"><path d="m572.71 391.1-8.8164-46.207c-.4375-2.2773-1.7617-4.2852-3.6836-5.582-1.918-1.3008-4.2734-1.7852-6.5508-1.3438l-5.5898 1.1016c-1.7305.33984-3.3203 1.1914-4.5664 2.4375l-49.043 48.492c2.4336 22.301-3.1094 44.742-15.648 63.344-12.535 18.605-31.254 32.168-52.836 38.285-2.7539.78906-5.5117 1.4961-8.3438 1.9688-31.301 5.9883-63.523-4.0586-85.875-26.773-22.352-22.719-31.871-55.102-25.371-86.301s28.156-57.086 57.719-68.988 63.117-8.2461 89.422 9.7422c5.3164 3.6055 10.25 7.7461 14.723 12.359l49.828-49.828c2.6953-4 1.6367-9.4258-2.3594-12.125l-39.359-26.527h-.003906c-4-2.6914-9.4258-1.6367-12.121 2.3594-3.8086 5.7266-9.2617 10.168-15.641 12.738-6.375 2.5703-13.383 3.1523-20.098 1.668-6.7188-1.3359-12.883-4.6406-17.719-9.4883-4.8359-4.8516-8.1211-11.027-9.4414-17.746-.4375-2.2773-1.7617-4.2852-3.6797-5.5859-1.9219-1.2969-4.2773-1.7812-6.5547-1.3438l-46.207 8.3438c-2.2773.44141-4.2852 1.7656-5.582 3.6836-1.3008 1.918-1.7852 4.2773-1.3438 6.5508v.55078c1.043 6.7031.14453 13.566-2.5898 19.773-2.7344 6.207-7.1914 11.504-12.84 15.258-5.7188 3.832-12.445 5.875-19.328 5.875-6.8828.0-13.609-2.043-19.324-5.875-4.0273-2.6992-9.4766-1.6445-12.203 2.3633l-26.527 39.359c-2.6914 4-1.6367 9.4258 2.3594 12.121 5.6914 3.8633 10.109 9.332 12.688 15.707 2.5781 6.3789 3.2031 13.379 1.7969 20.113v.47266c-1.4297 6.6289-4.7852 12.688-9.6445 17.422-4.8555 4.7344-11.004 7.9258-17.668 9.1836-2.2773.4375-4.2852 1.7617-5.5859 3.6836-1.2969 1.918-1.7812 4.2734-1.3438 6.5508l8.3438 46.207c.44141 2.2773 1.7656 4.2852 3.6836 5.5859 1.918 1.2969 4.2773 1.7812 6.5508 1.3438 6.7773-1.2344 13.766-.44531 20.094 2.2734 6.3281 2.7148 11.715 7.2344 15.488 12.996 3.8398 5.7578 5.8906 12.523 5.8906 19.445s-2.0508 13.688-5.8906 19.445c-2.6992 4.0234-1.6445 9.4727 2.3633 12.199l39.359 26.527v.003906c4 2.6914 9.4258 1.6328 12.121-2.3633 3.8633-5.6914 9.332-10.105 15.707-12.688 6.3789-2.5781 13.379-3.2031 20.113-1.7969h.47266c6.6172 1.4258 12.672 4.7695 17.402 9.6133s7.9336 10.973 9.2031 17.625c.4375 2.2734 1.7617 4.2812 3.6836 5.582 1.918 1.3008 4.2734 1.7812 6.5508 1.3438l46.207-8.3438c2.2773-.4375 4.2852-1.7617 5.5859-3.6836 1.2969-1.918 1.7812-4.2734 1.3438-6.5508-.42969-2.1797-.64062-4.3945-.63281-6.6133-.046876-8.5586 3.0508-16.84 8.7031-23.266 5.6484-6.4297 13.465-10.562 21.961-11.613 8.4922-1.0508 17.078 1.0508 24.129 5.9102 4.0234 2.7031 9.4727 1.6445 12.199-2.3594l26.527-39.359.003906-.003906c2.6914-4 1.6328-9.4258-2.3633-12.121-5.6914-3.8633-10.105-9.332-12.688-15.707-2.5781-6.3789-3.2031-13.379-1.7969-20.109v-.47266c1.4258-6.6211 4.7695-12.676 9.6133-17.406 4.8438-4.7305 10.973-7.9336 17.625-9.2031 2.3594-.32422 4.4883-1.6016 5.8828-3.5352 1.3984-1.9336 1.9453-4.3516 1.5156-6.6992z" fill="#0033ff"/><path d="m553.27 310.89-32.355 32.355-9.8359 9.5234-19.762 20.074-67.227 67.148-17.004 17.004c-1.0234 1.0781-2.4453 1.6875-3.9336 1.6875-1.4883.0-2.9102-.60938-3.9375-1.6875l-17.004-17.004-51.562-51.484c-1.0547-1.0352-1.6523-2.4531-1.6523-3.9336s.59766-2.9023 1.6523-3.9375l13.145-13.145h.003907c1.0352-1.0586 2.4531-1.6562 3.9336-1.6562 1.4844.0 2.9023.59766 3.9375 1.6562l47.625 47.625c1.0273 1.0781 2.4492 1.6875 3.9375 1.6875s2.9102-.60938 3.9336-1.6875l88.402-88.402 9.2891-9.3672 7.8711-7.8711 19.762-19.684c1.0352-1.0586 2.457-1.6523 3.9375-1.6523s2.8984.59375 3.9336 1.6523l13.066 13.145.003906.003906c1.0625 1.0586 1.6445 2.5078 1.6133 4.0078-.027343 1.5-.66797 2.9258-1.7734 3.9414z" fill="#0033ff"/></g></svg></g></svg>