<svg width="20" height="31" viewBox="0 0 20 31" fill="none" xmlns="http://www.w3.org/2000/svg">
<path d="M14.6463 16.206C14.5658 15.9077 14.4474 15.6449 14.2912 15.4176C14.1349 15.1856 13.9432 14.9891 13.7159 14.8281C13.4886 14.6671 13.2282 14.5464 12.9347 14.4659C12.6411 14.3807 12.3191 14.3381 11.9688 14.3381C11.2633 14.3381 10.6525 14.5085 10.1364 14.8494C9.625 15.1903 9.22964 15.6875 8.95028 16.3409C8.67093 16.9896 8.53125 17.7779 8.53125 18.706C8.53125 19.6387 8.66619 20.4342 8.93608 21.0923C9.20597 21.7505 9.59659 22.2524 10.108 22.598C10.6193 22.9437 11.2396 23.1165 11.9688 23.1165C12.6127 23.1165 13.1572 23.0123 13.6023 22.804C14.0521 22.5909 14.393 22.2902 14.625 21.902C14.857 21.5137 14.973 21.0568 14.973 20.5312L15.6264 20.6094H12.0895V18.0455H18.3608V19.9702C18.3608 21.2723 18.0838 22.3873 17.5298 23.3153C16.9806 24.2434 16.223 24.956 15.2571 25.4531C14.2959 25.9503 13.1903 26.1989 11.9403 26.1989C10.553 26.1989 9.33381 25.8982 8.28267 25.2969C7.23153 24.6955 6.41241 23.8385 5.82528 22.7259C5.23816 21.6084 4.9446 20.2827 4.9446 18.7486C4.9446 17.5554 5.12216 16.4972 5.47727 15.5739C5.83239 14.6458 6.32718 13.8598 6.96165 13.2159C7.60085 12.572 8.33949 12.0843 9.17756 11.7528C10.0204 11.4214 10.9271 11.2557 11.8977 11.2557C12.7405 11.2557 13.5241 11.3764 14.2486 11.6179C14.9777 11.8594 15.6217 12.2003 16.1804 12.6406C16.7438 13.081 17.2008 13.6042 17.5511 14.2102C17.9015 14.8163 18.1193 15.4815 18.2045 16.206H14.6463Z" fill="white"/>
<path d="M1.10085 19V4.45455H7.10938C8.19839 4.45455 9.13826 4.65104 9.92898 5.04403C10.7244 5.43229 11.3376 5.991 11.7685 6.72017C12.1993 7.4446 12.4148 8.30398 12.4148 9.2983C12.4148 10.3068 12.1946 11.1638 11.7543 11.8693C11.3139 12.5701 10.6889 13.1051 9.87926 13.4744C9.0696 13.839 8.1108 14.0213 7.00284 14.0213H3.20312V11.2514H6.34943C6.87974 11.2514 7.32244 11.1828 7.67756 11.0455C8.03741 10.9034 8.30966 10.6903 8.49432 10.4062C8.67898 10.1174 8.77131 9.74811 8.77131 9.2983C8.77131 8.84848 8.67898 8.4768 8.49432 8.18324C8.30966 7.88494 8.03741 7.66241 7.67756 7.51562C7.31771 7.36411 6.875 7.28835 6.34943 7.28835H4.61648V19H1.10085ZM9.28977 12.3523L12.9119 19H9.0767L5.52557 12.3523H9.28977Z" fill="#0033FF"/>
</svg>
