<svg xmlns="http://www.w3.org/2000/svg" width="352" height="352" viewBox="0 0 352 352"><g transform="translate(176, 176) translate(-128, -128)"><svg width="256" height="256" viewBox="144 144 512 512"><defs xmlns="http://www.w3.org/2000/svg"><clipPath id="a"><path d="m148.09 534H651.9v44H148.09z" fill="#0033ff"/></clipPath></defs><path xmlns="http://www.w3.org/2000/svg" d="m178.62 532.35h442.75c6.4023.0 11.59-5.1875 11.59-11.586v-286.67c0-6.3984-5.1875-11.586-11.59-11.586H178.62c-6.3984.0-11.59 5.1875-11.59 11.586v286.82c.085938 6.3398 5.25 11.438 11.59 11.434zM4e2 229.96c2.3008.0 4.3789 1.3906 5.2578 3.5156.88281 2.1289.39453 4.5781-1.2344 6.2031-1.6289 1.6289-4.0781 2.1172-6.2031 1.2344-2.1289-.87891-3.5156-2.957-3.5156-5.2578.027343-3.1328 2.5625-5.668 5.6953-5.6953zm-206.56 18.895h413.12v257.2H193.44z" fill="#0033ff"/><g xmlns="http://www.w3.org/2000/svg" clip-path="url(#a)"><path d="m651.9 536.03c-81.414.30078-159.05.0-171.3.0-21.914.0-238.7.55469-332.16-1.4609v3.6289h-.35156c.039062 10.336 4.168 20.238 11.484 27.547 7.3125 7.3047 17.223 11.418 27.562 11.445h425.72c10.285-.023438 20.148-4.0977 27.453-11.34 7.3086-7.2383 11.473-17.066 11.59-27.352v-2.4688zm-205.71 26.199h-92.297c-1.6641.15234-3.3164-.40234-4.5508-1.5273-1.2344-1.1289-1.9375-2.7227-1.9375-4.3945.0-1.6719.70312-3.2656 1.9375-4.3906 1.2344-1.1289 2.8867-1.6836 4.5508-1.5273h92.199c1.6641-.15625 3.3164.39844 4.5508 1.5273 1.2383 1.125 1.9414 2.7188 1.9414 4.3906.0 1.6719-.70312 3.2656-1.9414 4.3945-1.2344 1.125-2.8867 1.6797-4.5508 1.5273z" fill="#0033ff"/></g></svg></g></svg>