<svg xmlns="http://www.w3.org/2000/svg" width="352" height="352" viewBox="0 0 352 352"><g transform="translate(176, 176) translate(-128, -128)"><svg width="256" height="256" viewBox="144 144 512 512"><defs xmlns="http://www.w3.org/2000/svg"><clipPath id="b"><path d="m166 180h485.9v225H166z" fill="#0033ff"/></clipPath><clipPath id="a"><path d="m148.09 208H4e2v132H148.09z" fill="#0033ff"/></clipPath></defs><g xmlns="http://www.w3.org/2000/svg" clip-path="url(#b)"><path d="m539.95 404.66c61.832.0 111.96-50.125 111.96-111.96s-50.125-111.96-111.96-111.96c-61.832.0-111.96 50.125-111.96 111.96.0 10.305 8.3555 18.66 18.66 18.66 10.305.0 18.66-8.3555 18.66-18.66.0-41.223 33.414-74.641 74.637-74.641s74.641 33.418 74.641 74.641c0 41.219-33.418 74.637-74.641 74.637h-354.53c-10.305.0-18.66 8.3555-18.66 18.66.0 10.305 8.3555 18.66 18.66 18.66z" fill-rule="evenodd" fill="#0033ff"/></g><g xmlns="http://www.w3.org/2000/svg" clip-path="url(#a)"><path d="m334.69 339.36c36.066.0 65.309-29.242 65.309-65.309.0-36.07-29.242-65.309-65.309-65.309-26.414.0-49.918 15.828-60.098 39.711-4.043 9.4805.36719 20.441 9.8477 24.484 9.4805 4.0391 20.441-.36719 24.48-9.8477 4.3672-10.246 14.441-17.027 25.77-17.027 15.457.0 27.988 12.531 27.988 27.988s-12.531 27.988-27.988 27.988h-167.94c-10.305.0-18.66 8.3555-18.66 18.66.0 10.305 8.3555 18.66 18.66 18.66z" fill-rule="evenodd" fill="#0033ff"/></g><path xmlns="http://www.w3.org/2000/svg" d="m502.62 469.97c30.918.0 55.98 25.062 55.98 55.977.0 30.918-25.062 55.98-55.98 55.98-30.914.0-55.977-25.062-55.977-55.98.0-10.305-8.3555-18.656-18.66-18.656-10.305.0-18.66 8.3516-18.66 18.656.0 51.527 41.77 93.301 93.297 93.301s93.301-41.773 93.301-93.301c0-51.527-41.773-93.297-93.301-93.297H213.4c-10.305.0-18.66 8.3555-18.66 18.66s8.3555 18.66 18.66 18.66z" fill-rule="evenodd" fill="#0033ff"/></svg></g></svg>